<svg xmlns="http://www.w3.org/2000/svg" width="18.13" height="14.119" viewBox="0 0 18.13 14.119"><defs><style>.a{fill:#fff;}</style></defs><g transform="translate(0)"><path class="a" d="M1830.2,536.112" transform="translate(-1817.944 -529.611)"/><path class="a" d="M1839.827,438.924v8.939l-5.72-4.377Z" transform="translate(-1821.697 -436.321)"/><path class="a" d="M1530.435,443.486l-5.72,4.377v-8.939Z" transform="translate(-1524.715 -436.321)"/><path class="a" d="M1543.728,375.12a1.268,1.268,0,0,0-1.245-1.092H1526.92a1.267,1.267,0,0,0-1.245,1.092l9.026,6.74Z" transform="translate(-1525.637 -374.028)"/><path class="a" d="M1535.116,573.146a.644.644,0,0,1-.706,0l-1.816-1.2-6.855,5.1a1.265,1.265,0,0,0,1.242,1.083h15.563a1.266,1.266,0,0,0,1.242-1.083l-6.855-5.1Z" transform="translate(-1525.698 -564.009)"/></g></svg>