<svg xmlns="http://www.w3.org/2000/svg" width="10.591" height="15.403" viewBox="0 0 10.591 15.403"><defs><style>.a{fill:#fff;}</style></defs><path class="a" d="M836.832,350.142a5.227,5.227,0,0,0-4.441-2.636c-.079,0-.158,0-.237,0a5.227,5.227,0,0,0-4.442,2.636,5.363,5.363,0,0,0-.07,5.3l3.819,6.991.005.009a.928.928,0,0,0,1.611,0l.005-.009,3.82-6.991a5.363,5.363,0,0,0-.07-5.3Zm-4.56,4.342a2.166,2.166,0,1,1,2.166-2.166,2.168,2.168,0,0,1-2.166,2.166Zm0,0" transform="translate(-826.977 -347.505)"/></svg>