<svg xmlns="http://www.w3.org/2000/svg" width="10.887" height="15.446" viewBox="0 0 10.887 15.446"><defs><style>.a{fill:#fff;}</style></defs><path class="a" d="M1174.942,351.653a1.05,1.05,0,0,0-1.52-.454c-.461.246-.922.493-1.378.747a.219.219,0,0,1-.309-.034c-.193-.194-.407-.369-.587-.572a11.5,11.5,0,0,1-1.936-3.213,6.571,6.571,0,0,1-.5-1.811.228.228,0,0,1,.138-.265c.458-.237.91-.486,1.365-.735a1.054,1.054,0,0,0,.462-1.557c-.194-.364-.39-.721-.584-1.085s-.4-.747-.6-1.117a1.056,1.056,0,0,0-1.521-.451c-.464.245-.915.5-1.383.742a1.806,1.806,0,0,0-.893,1.006,5.163,5.163,0,0,0-.253,2.244,13.5,13.5,0,0,0,1.155,4.512,14.834,14.834,0,0,0,3.608,5.089,7.108,7.108,0,0,0,2.381,1.537,2,2,0,0,0,1.826-.135c.406-.25.843-.458,1.262-.687a1.061,1.061,0,0,0,.468-1.546q-.6-1.11-1.2-2.216Zm0,0" transform="translate(-1165.42 -340.948)"/></svg>